<svg xmlns="http://www.w3.org/2000/svg" viewBox="0 0 845 811"><title>bowl</title><g id="Layer_2" data-name="Layer 2"><g id="Layer_1-2" data-name="Layer 1"><path d="M238,116.25l46.5-.61,46.5-.35c15.5-.15,31-.12,46.5-.18L424,115l46.5.11c15.5.06,31,0,46.5.18l46.5.35,46.5.61v2.5c-7.75,2.36-15.5,4.21-23.25,5.89s-15.5,3.14-23.25,4.5c-15.5,2.65-31,4.64-46.5,6.26-31,3.12-62,4.57-93,4.59a919.09,919.09,0,0,1-93-4.53c-15.5-1.62-31-3.61-46.5-6.27-3.87-.71-7.75-1.36-11.62-2.12s-7.75-1.51-11.63-2.4c-7.75-1.69-15.5-3.54-23.25-5.92Z" style="fill:#c8dcdc"/><path d="M687.59,25c14.46,0,24.88,6.1,28.78,12.15,2.32,3.58,1.76,6,.82,8.11L698.67,86.33c-1.8,4-6.53,7.92-12.65,10.44L646.53,113.1l33.59,26.42a385,385,0,0,1,58.13,56.53,363.44,363.44,0,0,1,44,66.76,342.3,342.3,0,0,1,6.75,298.4c-19.9,43.66-48.43,82.91-84.8,116.65a399.4,399.4,0,0,1-126.43,79.06,429.33,429.33,0,0,1-310.64,0,399.4,399.4,0,0,1-126.43-79.06c-36.37-33.74-64.9-73-84.8-116.65A342.31,342.31,0,0,1,62.61,263a364.17,364.17,0,0,1,44-66.7,385.37,385.37,0,0,1,58-56.5l34-26.78L158.38,96.93c-6.32-2.53-11.2-6.49-13-10.6L126.81,45.26c-.94-2.1-1.5-4.53.82-8.11C131.53,31.1,142,25,156.41,25H687.59m0-25H156.41c-38,0-64.67,28.3-52.39,55.53l18.51,41.08c4.68,10.36,14.35,18.65,26.56,23.53C57.88,192.05,0,299.25,0,419,0,635.5,189.16,811,422.5,811S845,635.5,845,419c0-119.9-58-227.22-149.42-299.12,11.89-4.92,21.3-13.1,25.89-23.27L740,55.53C752.26,28.3,725.56,0,687.59,0Z" style="fill:#c8dcdc"/></g></g></svg>