<svg xmlns="http://www.w3.org/2000/svg" viewBox="0 0 366.5 366.5"><title>food</title><g id="Layer_2" data-name="Layer 2"><g id="Layer_1-2" data-name="Layer 1"><path d="M62,168.76,10.36,220.37l61.52,61.52,90.34-90.34C125.88,158.89,82.23,148.51,62,168.76Z" style="fill:#4d4d4d"/><path d="M220.38,10.36l-38.9,38.89c7.09-7.08,17-10.41,28.53-10.36,21.37.11,48.08,11.92,71.71,33.16l.17-.17,38.72-38.72C284.27.5,240.62-9.89,220.38,10.36Z" style="fill:#4d4d4d"/><path d="M210,38.89c-11.49,0-21.44,3.28-28.53,10.36L62,168.76c20.25-20.25,63.9-9.87,100.24,22.79l80.95-81,38.55-38.55C258.09,50.81,231.38,39,210,38.89Z" style="fill:#64b573"/><path d="M168.76,197.75q-3.22-3.23-6.54-6.2L71.88,281.89l74.25,74.25,51.62-51.62C219.23,283,206.25,235.24,168.76,197.75Z" style="fill:#3c3c3c"/><path d="M281.89,71.88l-.17.17q3.31,3,6.54,6.2Z" style="fill:#4d4d4d"/><path d="M320.61,33.16,281.89,71.88l6.37,6.37c25.12,25.12,39.24,54.88,39.35,78.24.06,11.5-3.28,21.44-10.36,28.53l38.89-38.89c21.48-21.48,8.5-69.28-29-106.78Q323.93,36.14,320.61,33.16Z" style="fill:#3c3c3c"/><path d="M281.72,72.05,243.17,110.6l-80.95,81q3.32,3,6.54,6.2c37.49,37.49,50.47,85.29,29,106.77L317.25,185c7.08-7.09,10.42-17,10.36-28.53-.11-23.36-14.23-53.12-39.35-78.24Q285,75,281.72,72.05Z" style="fill:#649673"/><ellipse cx="78.25" cy="288.26" rx="55" ry="96" transform="translate(-180.91 139.76) rotate(-45)" style="fill:#666"/><ellipse cx="33.21" cy="252.69" rx="6.3" ry="11" transform="translate(-168.95 97.49) rotate(-45)" style="fill:#4d4d4d"/><ellipse cx="113.11" cy="332.59" rx="6.3" ry="11" transform="translate(-202.05 177.39) rotate(-45)" style="fill:#4d4d4d"/><ellipse cx="98.97" cy="267.54" rx="6.3" ry="11" transform="translate(-160.19 148.34) rotate(-45)" style="fill:#4d4d4d"/><ellipse cx="50.18" cy="316.33" rx="6.3" ry="11" transform="translate(-208.98 128.13) rotate(-45)" style="fill:#4d4d4d"/><ellipse cx="73.51" cy="292.99" rx="6.3" ry="11" transform="translate(-185.65 137.8) rotate(-45)" style="fill:#4d4d4d"/></g></g></svg>