<svg xmlns="http://www.w3.org/2000/svg" viewBox="0 0 197 148.01"><title>goldfish</title><g id="Layer_2" data-name="Layer 2"><g id="Layer_1-2" data-name="Layer 1"><path d="M151.46,27.28C146.8,17.71,117.9-7.39,101.54,2.11S103.44,20,92,23.41s-.38,10.27,16,8.37S151.46,27.28,151.46,27.28Z" style="fill:#ffa355"/><path d="M10.14,120.83l47.72-13.06V53.9L10.14,40.84C4,39.15-1.41,46.29.33,53.86l6.22,27-6.22,27C-1.41,115.38,4,122.52,10.14,120.83Z" style="fill:#ffa355"/><path d="M31.29,80.84c0,31.71,66.32,46,98,46s67.68-14.3,67.68-46-36-57.43-67.68-57.43S31.29,49.12,31.29,80.84Z" style="fill:#ffba55"/><path d="M131,84.45c-4.14,18-15.19,68.13-35.91,63.22s-18-20.71-28.55-18.53-1.2-23.71,26.71-36.51C115.8,82.27,131,84.45,131,84.45Z" style="fill:#ffa355"/><circle cx="169.81" cy="77.22" r="15.78" style="fill:#fff"/></g></g></svg>